<?xml version="1.0" encoding="UTF-8"?>
<svg id="Layer_1" data-name="Layer 1" xmlns="http://www.w3.org/2000/svg" viewBox="0 0 16 16">
  <defs>
    <style>
      .cls-1 {
        fill: blue;
        stroke-width: 0px;
      }
    </style>
  </defs>
  <path class="cls-1" d="M14.53,4.36c0-1.59-1.29-2.88-2.89-2.88h-3.11s-.04.02-.04.04v2.95s-.05.05-.07.02c-.77-1.01-1.28-1.63-2.58-1.67-1.35-.04-2.42.51-3.18,1.62-.98,1.43-.84,3.39.43,4.68.25.25.54.48.87.67.02.01.03.05,0,.07-.09.08-.18.17-.27.24-.2.18-.41.36-.61.54-.54.48-1.08.95-1.62,1.42-.01.01-.02.03-.01.05.3.83.9,1.49,1.63,1.91.51.29,1.09.46,1.69.49h.62c1.58,0,2.86-1.28,2.86-2.86v-.37c0-.64-.23-1.22-.62-1.68-.33-.41-.8-.71-1.34-.83-.09-.02-.6-.14-.93-.19-.04,0-.04-.06,0-.07l1.11-.18c.9-.15,1.6-.85,1.75-1.75l.18-1.08s.07-.05.08,0l.18,1.08c.15.9.85,1.6,1.75,1.75l1.08.18s.05.07,0,.08l-.89.15c-.97.16-1.62.88-1.83,1.82,0,0-.01.14-.01.21v1.17s0,0,0,0c.15,1.93,2.41,3.16,4.18,2.3.99-.48,1.57-1.31,1.58-2.42.01-1.98.01-5.15,0-7.46Z"/>
</svg>