<?xml version="1.0" encoding="UTF-8"?>
<svg id="Layer_1" data-name="Layer 1" xmlns="http://www.w3.org/2000/svg" viewBox="0 0 32 32">
  <defs>
    <style>
      .cls-1 {
        fill: blue;
        stroke-width: 0px;
      }
    </style>
  </defs>
  <path class="cls-1" d="M27.84,9.41c0-2.88-2.34-5.22-5.23-5.22h-5.63s-.07.03-.07.07v5.34c0,.07-.09.1-.13.04-1.4-1.83-2.31-2.95-4.67-3.02-2.44-.07-4.39.93-5.77,2.93-1.78,2.59-1.52,6.13.79,8.48.45.46.97.87,1.57,1.22.04.03.05.09.01.12-.17.15-.32.3-.48.44-.37.33-.74.65-1.1.98-.98.86-1.95,1.73-2.94,2.58-.02.02-.03.05-.02.08.55,1.5,1.63,2.7,2.96,3.45.93.53,1.97.84,3.06.88h1.12c2.86,0,5.18-2.32,5.18-5.18v-.67c0-1.16-.42-2.22-1.12-3.04-.61-.75-1.46-1.29-2.43-1.51-.16-.04-1.08-.25-1.69-.35-.07-.01-.07-.11,0-.13l2.01-.33c1.63-.27,2.91-1.54,3.17-3.17l.32-1.96c.01-.08.13-.08.15,0l.32,1.96c.27,1.63,1.54,2.91,3.17,3.17l1.96.32c.08.01.08.13,0,.15l-1.61.27c-1.75.29-2.93,1.59-3.31,3.3,0,0-.03.25-.03.37v2.13s0,0,0,0c.26,3.49,4.36,5.73,7.56,4.17,1.8-.88,2.84-2.37,2.85-4.38.03-3.59.02-9.33.02-13.51Z"/>
</svg>