<svg width="12" height="12" viewBox="0 0 12 12" fill="none" xmlns="http://www.w3.org/2000/svg">
<path d="M11.5853 1.00001C11.5853 0.447729 11.1376 1.38847e-05 10.5853 1.43062e-05L1.58531 1.44326e-05C1.03303 1.40954e-05 0.585313 0.447729 0.585313 1.00001C0.585313 1.5523 1.03303 2.00001 1.58531 2.00001L9.58531 2.00001L9.58531 10C9.58531 10.5523 10.033 11 10.5853 11C11.1376 11 11.5853 10.5523 11.5853 10L11.5853 1.00001ZM0.707031 10.8783L1.41414 11.5854L11.2924 1.70712L10.5853 1.00001L9.87821 0.292907L-7.55191e-05 10.1712L0.707031 10.8783Z" fill="#0000FF"/>
</svg>
