<svg width="13" height="13" viewBox="0 0 13 13" fill="none" xmlns="http://www.w3.org/2000/svg">
<rect x="0.55" y="0.55" width="11.9" height="11.9" rx="5.95" stroke="#0000FF" stroke-width="1.1"/>
<path d="M5.11473 9.32074C5.11473 8.94061 5.36664 8.71053 5.84945 8.71053C6.32177 8.71053 6.58417 8.94061 6.58417 9.32074V9.34074C6.58417 9.71087 6.32177 9.94095 5.84945 9.94095C5.36664 9.94095 5.11473 9.71087 5.11473 9.34074V9.32074ZM3.82373 4.42906V3.41872C4.61093 3.17863 5.40862 3.05859 6.26929 3.05859C8.19005 3.05859 9.17667 3.6588 9.17667 4.80919C9.17667 5.87956 8.316 6.31971 7.14045 6.84989C6.68913 7.03995 6.45822 7.17 6.45822 7.74019V7.98028H5.23019V7.60015C5.23019 6.61981 5.69201 6.37973 6.65764 5.95959C7.35037 5.66949 7.86468 5.38939 7.86468 4.85921C7.86468 4.30902 7.32938 4.03893 6.21681 4.03893C5.4611 4.03893 4.71589 4.15897 3.82373 4.42906Z" fill="#0000FF"/>
</svg>
