<svg width="77" height="14" viewBox="0 0 77 14" fill="none" xmlns="http://www.w3.org/2000/svg">
<path d="M10.3128 0.232422V13.7684H7.86728V8.838H4.91175L2.61521 13.7684H0L2.53035 8.25737C1.77838 7.90971 1.16181 7.40674 0.680658 6.74936C0.226586 6.07934 0 5.33797 0 4.52528C0 3.33964 0.460392 2.32738 1.38208 1.4894C2.30376 0.651413 3.41593 0.232422 4.72037 0.232422H10.3128ZM7.86728 2.45651H4.72037C4.09658 2.45651 3.56488 2.65697 3.12525 3.0561C2.67117 3.46877 2.44459 3.95819 2.44459 4.52528C2.44459 5.09236 2.67117 5.58269 3.12525 5.99446C3.56488 6.40713 4.09568 6.61301 4.72037 6.61301H7.86728V2.4556V2.45651Z" fill="white"/>
<path d="M20.2004 1.12152C21.0363 1.86921 21.4552 2.7722 21.4552 3.82871C21.4552 4.34432 21.3342 4.84729 21.0941 5.33672C20.9948 5.52996 20.8774 5.71417 20.7429 5.88755C20.6084 6.06183 20.4558 6.22617 20.2861 6.38059C20.853 6.7156 21.3071 7.14091 21.6474 7.65652C22.0437 8.26243 22.2432 8.95233 22.2432 9.72529C22.2432 10.8983 21.7828 11.9042 20.8612 12.7413C19.9259 13.5793 18.7912 13.9983 17.4588 13.9983C16.4378 13.9983 15.5098 13.7346 14.673 13.2054C13.8361 12.6772 13.2837 11.9873 13.0146 11.1367C12.8016 10.454 12.6454 9.74426 12.547 9.01012C12.4477 8.27508 12.4053 7.50843 12.4197 6.70928C12.4477 5.13625 12.668 3.77634 13.0787 2.62953C13.3477 1.84302 13.8659 1.2055 14.6314 0.715175C15.3681 0.238391 16.2049 0 17.1401 0C18.3453 0 19.3653 0.373841 20.2022 1.12152H20.2004ZM15.331 10.5389C15.4159 10.7195 15.5296 10.8838 15.6714 11.0319C15.8131 11.18 15.9765 11.3128 16.1607 11.4283C16.5569 11.6604 16.9903 11.776 17.4579 11.776C18.1241 11.776 18.6838 11.5764 19.1378 11.1764C19.5775 10.7637 19.7968 10.2743 19.7968 9.70723C19.7968 9.14015 19.563 8.65705 19.0954 8.25702C18.6278 7.87053 18.0537 7.67729 17.373 7.67729H14.8634C14.877 8.94059 15.0331 9.89506 15.331 10.5389ZM16.0966 2.49498C15.9404 2.59793 15.8095 2.70809 15.703 2.82368C15.5964 2.93926 15.508 3.07471 15.4376 3.23003C15.3238 3.47474 15.2173 3.79079 15.1189 4.17727C15.0196 4.56375 14.9411 4.98907 14.8851 5.45321H17.0543C17.5933 5.45321 18.0537 5.29879 18.4364 4.98907C18.8192 4.67934 19.0106 4.29917 19.0106 3.84858C19.0106 3.39798 18.8327 3.0106 18.4789 2.68823C18.1241 2.3785 17.6781 2.22408 17.1392 2.22408C16.7564 2.22408 16.4089 2.31438 16.0975 2.49498H16.0966Z" fill="white"/>
<path d="M22.4531 13.7679L26.6851 4.09952H29.3003L33.5314 13.7679H30.8945L27.9814 7.11644L25.0683 13.7679H22.4531Z" fill="white"/>
<path d="M36.1271 9.80391C36.2688 10.3584 36.5667 10.8162 37.0199 11.1765C37.5444 11.5765 38.161 11.7761 38.8696 11.7761C39.9465 11.7761 40.7906 11.4988 41.3999 10.9444L43.1223 12.5301C42.0445 13.5098 40.6272 13.9992 38.8696 13.9992C37.3386 13.9992 36.0413 13.5035 34.9779 12.5102C33.9145 11.5178 33.3828 10.3249 33.3828 8.93252C33.3828 7.5401 33.9001 6.31563 34.9355 5.33588C35.9565 4.35612 37.232 3.8667 38.7631 3.8667C40.2941 3.8667 41.4559 4.3498 42.4209 5.31692C43.3562 6.27138 43.8247 7.47598 43.8247 8.93252V9.80301H36.1271V9.80391ZM36.935 6.57479C36.4954 6.94863 36.212 7.41277 36.0847 7.96721H41.1454C41.0181 7.37485 40.7554 6.90348 40.3582 6.55583C39.9465 6.18199 39.4013 5.99507 38.7206 5.99507C38.04 5.99507 37.4306 6.18831 36.9341 6.57479H36.935Z" fill="white"/>
<path d="M44.7168 4.09952H47.1623V7.81174H51.0539V4.09952H53.4994V13.7679H51.0539V10.0358H47.1623V13.7679H44.7168V4.09952Z" fill="white"/>
<path d="M57.4318 4.09952V9.243C57.4318 10.0033 57.6656 10.6156 58.1332 11.0797C58.5864 11.5438 59.1606 11.7759 59.8557 11.7759C60.5508 11.7759 61.1032 11.5438 61.5564 11.0797C62.0096 10.6156 62.2371 10.0033 62.2371 9.243V4.09952H64.6825V13.7679H62.3643V12.743C62.3219 12.7945 62.2795 12.8433 62.2371 12.8884C62.1946 12.9335 62.1522 12.9751 62.1098 13.0139C61.4436 13.6713 60.5643 14 59.4729 14C58.126 14 57.0418 13.5485 56.2195 12.6464C55.3971 11.7696 54.9863 10.6101 54.9863 9.16624V4.10042H57.4318V4.09952Z" fill="white"/>
<path d="M68.5529 9.80391C68.6946 10.3584 68.9925 10.8162 69.4457 11.1765C69.9702 11.5765 70.5867 11.7761 71.2954 11.7761C72.3723 11.7761 73.2164 11.4988 73.8257 10.9444L75.5481 12.5301C74.4703 13.5098 73.053 13.9992 71.2954 13.9992C69.7644 13.9992 68.4671 13.5035 67.4037 12.5102C66.3403 11.5178 65.8086 10.3249 65.8086 8.93252C65.8086 7.5401 66.3259 6.31563 67.3613 5.33588C68.3823 4.35612 69.6578 3.8667 71.1889 3.8667C72.7199 3.8667 73.8817 4.3498 74.8467 5.31692C75.7819 6.27138 76.2505 7.47598 76.2505 8.93252V9.80301H68.5529V9.80391ZM69.3617 6.57479C68.9221 6.94863 68.6387 7.41277 68.5114 7.96721H73.5721C73.4448 7.37485 73.1821 6.90348 72.7849 6.55583C72.3732 6.18199 71.828 5.99507 71.1473 5.99507C70.4667 5.99507 69.8573 6.18831 69.3608 6.57479H69.3617Z" fill="white"/>
</svg>
