<svg width="321" height="92" viewBox="0 0 321 92" fill="none" xmlns="http://www.w3.org/2000/svg">
<path d="M119.116 77L117.853 73.7183H113.955L112.667 77H112L115.65 67.688H116.247L119.801 77H119.116ZM117.643 73.1279L116.361 69.6494C116.327 69.5605 116.285 69.4463 116.234 69.3066C116.187 69.167 116.137 69.0189 116.082 68.8623C116.031 68.7057 115.98 68.5576 115.929 68.418C115.887 68.5661 115.84 68.7142 115.79 68.8623C115.739 69.0104 115.69 69.1543 115.644 69.2939C115.597 69.4294 115.553 69.5521 115.51 69.6621L114.177 73.1279H117.643ZM124.01 69.9668C124.898 69.9668 125.586 70.2651 126.073 70.8618C126.564 71.4585 126.809 72.3387 126.809 73.5024C126.809 74.2811 126.693 74.9412 126.46 75.4829C126.227 76.0203 125.895 76.4287 125.463 76.708C125.036 76.9873 124.522 77.127 123.921 77.127C123.506 77.127 123.144 77.0656 122.835 76.9429C122.531 76.8159 122.277 76.6466 122.074 76.4351C121.871 76.2192 121.714 75.9823 121.604 75.7241H121.56C121.572 75.9653 121.583 76.2171 121.591 76.4795C121.6 76.7419 121.604 76.9894 121.604 77.2222V80.0532H120.957V70.1001H121.49L121.566 71.4775H121.604C121.718 71.2152 121.879 70.9676 122.086 70.7349C122.294 70.5021 122.556 70.3159 122.874 70.1763C123.191 70.0366 123.57 69.9668 124.01 69.9668ZM123.927 70.5317C123.407 70.5317 122.973 70.646 122.626 70.8745C122.283 71.0988 122.027 71.4289 121.858 71.8647C121.693 72.2964 121.608 72.8254 121.604 73.4517V73.5596C121.604 74.2324 121.687 74.7931 121.852 75.2417C122.021 75.686 122.273 76.0182 122.607 76.2383C122.945 76.4583 123.364 76.5684 123.864 76.5684C124.355 76.5684 124.769 76.4478 125.108 76.2065C125.446 75.9653 125.705 75.6162 125.882 75.1592C126.06 74.7021 126.149 74.1478 126.149 73.4961C126.149 72.527 125.963 71.7907 125.59 71.2871C125.222 70.7835 124.668 70.5317 123.927 70.5317ZM131.31 69.9668C131.898 69.9668 132.387 70.1043 132.776 70.3794C133.169 70.6545 133.461 71.0311 133.652 71.5093C133.847 71.9875 133.944 72.5355 133.944 73.1533V73.6167H128.961C128.961 74.5646 129.179 75.2925 129.615 75.8003C130.055 76.3081 130.683 76.562 131.5 76.562C131.927 76.562 132.298 76.5282 132.611 76.4604C132.928 76.3885 133.279 76.2679 133.665 76.0986V76.689C133.326 76.8413 132.987 76.9513 132.649 77.019C132.31 77.091 131.921 77.127 131.481 77.127C130.783 77.127 130.197 76.9831 129.723 76.6953C129.253 76.4033 128.897 75.9928 128.656 75.4639C128.419 74.9349 128.301 74.3171 128.301 73.6104C128.301 72.9206 128.415 72.3006 128.644 71.7505C128.876 71.2004 129.215 70.7666 129.659 70.4492C130.108 70.1276 130.658 69.9668 131.31 69.9668ZM131.303 70.519C130.643 70.519 130.108 70.7391 129.697 71.1792C129.291 71.6151 129.052 72.2456 128.98 73.0708H133.277C133.277 72.5672 133.205 72.1229 133.062 71.7378C132.918 71.3527 132.7 71.0544 132.408 70.8428C132.12 70.627 131.752 70.519 131.303 70.519ZM136.496 70.1001V73.1216H140.844V70.1001H141.485V77H140.844V73.6865H136.496V77H135.848V70.1001H136.496ZM148.512 70.1001V76.4351H149.438V79.3359H148.81V77H143.529V79.3359H142.907V76.4351H143.37C143.759 75.8976 144.085 75.2988 144.348 74.6387C144.61 73.9785 144.809 73.2676 144.944 72.5059C145.084 71.7399 145.158 70.938 145.167 70.1001H148.512ZM147.883 70.6396H145.75C145.717 71.3971 145.632 72.1229 145.497 72.8169C145.361 73.5067 145.175 74.1562 144.938 74.7656C144.701 75.3708 144.413 75.9272 144.075 76.4351H147.883V70.6396ZM153.298 69.9795C154.055 69.9795 154.622 70.1699 154.999 70.5508C155.376 70.9316 155.564 71.5389 155.564 72.3726V77H155.069L154.955 75.7939H154.917C154.768 76.0521 154.589 76.2827 154.377 76.4858C154.165 76.6847 153.905 76.8413 153.596 76.9556C153.292 77.0698 152.919 77.127 152.479 77.127C152.035 77.127 151.654 77.0529 151.336 76.9048C151.023 76.7567 150.78 76.5409 150.606 76.2573C150.437 75.9738 150.353 75.6289 150.353 75.2227C150.353 74.5371 150.636 74.0166 151.203 73.6611C151.77 73.3014 152.585 73.0983 153.647 73.0518L154.929 72.9883V72.4868C154.929 71.7801 154.79 71.2765 154.51 70.9761C154.231 70.6756 153.818 70.5254 153.272 70.5254C152.917 70.5254 152.574 70.5719 152.244 70.665C151.918 70.7539 151.586 70.883 151.248 71.0522L151.044 70.519C151.375 70.3625 151.728 70.2334 152.104 70.1318C152.485 70.0303 152.883 69.9795 153.298 69.9795ZM154.923 73.4897L153.717 73.5405C152.841 73.5828 152.174 73.7394 151.717 74.0103C151.26 74.2811 151.032 74.6873 151.032 75.229C151.032 75.6649 151.167 75.9992 151.438 76.2319C151.713 76.4647 152.094 76.5811 152.581 76.5811C153.338 76.5811 153.916 76.3652 154.313 75.9336C154.715 75.502 154.919 74.9137 154.923 74.1689V73.4897ZM165.942 77H165.301V70.6587H162.889C162.809 71.7463 162.714 72.6942 162.604 73.5024C162.493 74.3065 162.352 74.973 162.178 75.502C162.005 76.0267 161.789 76.4181 161.531 76.6763C161.273 76.9344 160.953 77.0635 160.572 77.0635C160.462 77.0635 160.365 77.0571 160.28 77.0444C160.196 77.036 160.128 77.0233 160.077 77.0063V76.4858C160.128 76.4985 160.185 76.5091 160.249 76.5176C160.312 76.5218 160.39 76.5239 160.483 76.5239C160.699 76.5239 160.892 76.4435 161.061 76.2827C161.23 76.1177 161.381 75.868 161.512 75.5337C161.647 75.1994 161.764 74.7783 161.861 74.2705C161.958 73.7585 162.043 73.1554 162.115 72.4614C162.191 71.7674 162.259 70.9803 162.318 70.1001H165.942V77ZM173.966 73.5405C173.966 74.0737 173.9 74.5604 173.769 75.0005C173.638 75.4364 173.443 75.813 173.185 76.1304C172.927 76.4478 172.605 76.6932 172.22 76.8667C171.839 77.0402 171.395 77.127 170.887 77.127C170.405 77.127 169.975 77.0423 169.599 76.873C169.222 76.6995 168.903 76.4541 168.64 76.1367C168.382 75.8193 168.185 75.4427 168.05 75.0068C167.914 74.5667 167.847 74.078 167.847 73.5405C167.847 72.8 167.969 72.1631 168.215 71.6299C168.465 71.0924 168.82 70.682 169.281 70.3984C169.747 70.1107 170.303 69.9668 170.951 69.9668C171.619 69.9668 172.176 70.1191 172.62 70.4238C173.069 70.7243 173.405 71.1432 173.629 71.6807C173.854 72.2181 173.966 72.8381 173.966 73.5405ZM168.507 73.5405C168.507 74.1457 168.594 74.6746 168.767 75.1274C168.941 75.5802 169.203 75.9336 169.554 76.1875C169.91 76.4414 170.358 76.5684 170.9 76.5684C171.454 76.5684 171.909 76.4414 172.265 76.1875C172.62 75.9336 172.882 75.5781 173.052 75.1211C173.221 74.6641 173.306 74.1372 173.306 73.5405C173.306 72.9608 173.225 72.4445 173.064 71.9917C172.904 71.5389 172.65 71.1834 172.303 70.9253C171.956 70.6629 171.503 70.5317 170.944 70.5317C170.145 70.5317 169.537 70.7983 169.123 71.3315C168.712 71.8647 168.507 72.6011 168.507 73.5405ZM179.387 67.123V69.9922C180.076 70.0345 180.667 70.2038 181.158 70.5C181.653 70.792 182.032 71.1961 182.294 71.7124C182.556 72.2244 182.688 72.8338 182.688 73.5405C182.688 74.2134 182.558 74.8101 182.3 75.3306C182.042 75.8468 181.666 76.2594 181.17 76.5684C180.68 76.8773 180.085 77.055 179.387 77.1016V80.123H178.765V77.1016C178.075 77.0677 177.482 76.9027 176.987 76.6064C176.496 76.3102 176.12 75.9019 175.857 75.3813C175.595 74.8608 175.464 74.2472 175.464 73.5405C175.464 72.8381 175.593 72.2308 175.851 71.7188C176.113 71.2025 176.49 70.7962 176.981 70.5C177.476 70.2038 178.075 70.0345 178.777 69.9922V67.123H179.387ZM178.777 70.5508C178.193 70.5804 177.705 70.7201 177.311 70.9697C176.917 71.2194 176.621 71.5622 176.422 71.998C176.228 72.4339 176.13 72.9481 176.13 73.5405C176.13 74.1499 176.23 74.6746 176.429 75.1147C176.628 75.5506 176.924 75.8913 177.317 76.1367C177.711 76.3822 178.198 76.5197 178.777 76.5493V70.5508ZM179.387 70.5571V76.5493C179.962 76.5112 180.445 76.3631 180.834 76.105C181.228 75.8468 181.524 75.4998 181.723 75.064C181.926 74.6239 182.027 74.116 182.027 73.5405C182.027 72.6392 181.805 71.9303 181.361 71.4141C180.921 70.8978 180.263 70.6121 179.387 70.5571ZM188.978 70.665H186.642V77H186.014V70.665H183.69V70.1001H188.978V70.665ZM192.793 69.9795C193.55 69.9795 194.118 70.1699 194.494 70.5508C194.871 70.9316 195.059 71.5389 195.059 72.3726V77H194.564L194.45 75.7939H194.412C194.264 76.0521 194.084 76.2827 193.872 76.4858C193.66 76.6847 193.4 76.8413 193.091 76.9556C192.787 77.0698 192.414 77.127 191.974 77.127C191.53 77.127 191.149 77.0529 190.832 76.9048C190.518 76.7567 190.275 76.5409 190.102 76.2573C189.932 75.9738 189.848 75.6289 189.848 75.2227C189.848 74.5371 190.131 74.0166 190.698 73.6611C191.265 73.3014 192.08 73.0983 193.142 73.0518L194.424 72.9883V72.4868C194.424 71.7801 194.285 71.2765 194.005 70.9761C193.726 70.6756 193.313 70.5254 192.768 70.5254C192.412 70.5254 192.069 70.5719 191.739 70.665C191.413 70.7539 191.081 70.883 190.743 71.0522L190.54 70.519C190.87 70.3625 191.223 70.2334 191.6 70.1318C191.98 70.0303 192.378 69.9795 192.793 69.9795ZM194.418 73.4897L193.212 73.5405C192.336 73.5828 191.669 73.7394 191.212 74.0103C190.755 74.2811 190.527 74.6873 190.527 75.229C190.527 75.6649 190.662 75.9992 190.933 76.2319C191.208 76.4647 191.589 76.5811 192.076 76.5811C192.833 76.5811 193.411 76.3652 193.809 75.9336C194.211 75.502 194.414 74.9137 194.418 74.1689V73.4897ZM205.825 71.7822C205.825 72.2181 205.71 72.5609 205.482 72.8105C205.258 73.0602 204.959 73.2295 204.587 73.3184V73.3564C205.04 73.4242 205.404 73.5955 205.679 73.8706C205.958 74.1414 206.098 74.5308 206.098 75.0386C206.098 75.4406 206.009 75.7876 205.831 76.0796C205.653 76.3716 205.38 76.598 205.012 76.7588C204.648 76.9196 204.181 77 203.609 77H200.658V70.1001H203.533C204.041 70.1001 204.464 70.1657 204.803 70.2969C205.141 70.4238 205.395 70.6121 205.564 70.8618C205.738 71.1073 205.825 71.4141 205.825 71.7822ZM205.431 75.0386C205.431 74.5435 205.264 74.188 204.93 73.9722C204.595 73.7563 204.104 73.6484 203.457 73.6484H201.305V76.4541H203.495C204.143 76.4541 204.627 76.3398 204.949 76.1113C205.27 75.8786 205.431 75.521 205.431 75.0386ZM205.171 71.833C205.171 71.4691 205.042 71.1834 204.784 70.9761C204.526 70.7645 204.088 70.6587 203.47 70.6587H201.305V73.0835H203.406C204.016 73.0835 204.462 72.9798 204.746 72.7725C205.029 72.5609 205.171 72.2477 205.171 71.833ZM215.499 68.1768C214.906 68.1768 214.377 68.2783 213.912 68.4814C213.446 68.6803 213.053 68.9639 212.731 69.332C212.409 69.7002 212.164 70.1403 211.995 70.6523C211.825 71.1602 211.741 71.7209 211.741 72.3345C211.741 73.1808 211.874 73.9214 212.141 74.5562C212.407 75.1867 212.807 75.6755 213.34 76.0225C213.878 76.3695 214.546 76.543 215.346 76.543C215.812 76.543 216.235 76.5091 216.616 76.4414C216.997 76.3695 217.35 76.2785 217.676 76.1685V76.7397C217.367 76.854 217.018 76.9471 216.628 77.019C216.243 77.091 215.795 77.127 215.283 77.127C214.356 77.127 213.577 76.9281 212.947 76.5303C212.32 76.1325 211.849 75.5739 211.531 74.8545C211.214 74.1351 211.055 73.2951 211.055 72.3345C211.055 71.6447 211.155 71.012 211.354 70.4365C211.552 69.8568 211.842 69.3553 212.223 68.9321C212.608 68.5047 213.076 68.1746 213.626 67.9419C214.176 67.7049 214.802 67.5864 215.505 67.5864C215.949 67.5864 216.372 67.6309 216.774 67.7197C217.181 67.8044 217.562 67.9292 217.917 68.0942L217.663 68.6655C217.32 68.4963 216.969 68.3735 216.609 68.2974C216.25 68.217 215.879 68.1768 215.499 68.1768ZM221.878 69.9795C222.635 69.9795 223.202 70.1699 223.579 70.5508C223.956 70.9316 224.144 71.5389 224.144 72.3726V77H223.649L223.535 75.7939H223.497C223.348 76.0521 223.169 76.2827 222.957 76.4858C222.745 76.6847 222.485 76.8413 222.176 76.9556C221.872 77.0698 221.499 77.127 221.059 77.127C220.615 77.127 220.234 77.0529 219.917 76.9048C219.603 76.7567 219.36 76.5409 219.187 76.2573C219.017 75.9738 218.933 75.6289 218.933 75.2227C218.933 74.5371 219.216 74.0166 219.783 73.6611C220.35 73.3014 221.165 73.0983 222.227 73.0518L223.509 72.9883V72.4868C223.509 71.7801 223.37 71.2765 223.09 70.9761C222.811 70.6756 222.398 70.5254 221.853 70.5254C221.497 70.5254 221.154 70.5719 220.824 70.665C220.498 70.7539 220.166 70.883 219.828 71.0522L219.625 70.519C219.955 70.3625 220.308 70.2334 220.685 70.1318C221.065 70.0303 221.463 69.9795 221.878 69.9795ZM223.503 73.4897L222.297 73.5405C221.421 73.5828 220.754 73.7394 220.297 74.0103C219.84 74.2811 219.612 74.6873 219.612 75.229C219.612 75.6649 219.747 75.9992 220.018 76.2319C220.293 76.4647 220.674 76.5811 221.161 76.5811C221.918 76.5811 222.496 76.3652 222.894 75.9336C223.296 75.502 223.499 74.9137 223.503 74.1689V73.4897ZM227.013 70.1001V73.1216H231.361V70.1001H232.002V77H231.361V73.6865H227.013V77H226.366V70.1001H227.013ZM238.071 70.1001H238.813L235.69 73.4517L239.004 77H238.21L234.96 73.5024V77H234.313V70.1001H234.96V73.4517L238.071 70.1001ZM244.672 70.665H242.336V77H241.708V70.665H239.385V70.1001H244.672V70.665ZM245.453 73.7817V73.1914H248.602V73.7817H245.453ZM250.43 77V67.7197H257.088V77H256.447V68.3101H251.083V77H250.43ZM262.173 69.9668C262.761 69.9668 263.25 70.1043 263.639 70.3794C264.033 70.6545 264.325 71.0311 264.515 71.5093C264.71 71.9875 264.807 72.5355 264.807 73.1533V73.6167H259.824C259.824 74.5646 260.042 75.2925 260.478 75.8003C260.918 76.3081 261.547 76.562 262.363 76.562C262.791 76.562 263.161 76.5282 263.474 76.4604C263.792 76.3885 264.143 76.2679 264.528 76.0986V76.689C264.189 76.8413 263.851 76.9513 263.512 77.019C263.174 77.091 262.784 77.127 262.344 77.127C261.646 77.127 261.06 76.9831 260.586 76.6953C260.116 76.4033 259.761 75.9928 259.52 75.4639C259.283 74.9349 259.164 74.3171 259.164 73.6104C259.164 72.9206 259.278 72.3006 259.507 71.7505C259.74 71.2004 260.078 70.7666 260.522 70.4492C260.971 70.1276 261.521 69.9668 262.173 69.9668ZM262.167 70.519C261.506 70.519 260.971 70.7391 260.561 71.1792C260.154 71.6151 259.915 72.2456 259.843 73.0708H264.141C264.141 72.5672 264.069 72.1229 263.925 71.7378C263.781 71.3527 263.563 71.0544 263.271 70.8428C262.983 70.627 262.615 70.519 262.167 70.519ZM271.104 70.665H268.768V77H268.14V70.665H265.816V70.1001H271.104V70.665ZM275.122 69.9668C275.71 69.9668 276.199 70.1043 276.588 70.3794C276.982 70.6545 277.274 71.0311 277.464 71.5093C277.659 71.9875 277.756 72.5355 277.756 73.1533V73.6167H272.773C272.773 74.5646 272.991 75.2925 273.427 75.8003C273.867 76.3081 274.496 76.562 275.312 76.562C275.74 76.562 276.11 76.5282 276.423 76.4604C276.741 76.3885 277.092 76.2679 277.477 76.0986V76.689C277.139 76.8413 276.8 76.9513 276.461 77.019C276.123 77.091 275.734 77.127 275.293 77.127C274.595 77.127 274.009 76.9831 273.535 76.6953C273.065 76.4033 272.71 75.9928 272.469 75.4639C272.232 74.9349 272.113 74.3171 272.113 73.6104C272.113 72.9206 272.228 72.3006 272.456 71.7505C272.689 71.2004 273.027 70.7666 273.472 70.4492C273.92 70.1276 274.47 69.9668 275.122 69.9668ZM275.116 70.519C274.456 70.519 273.92 70.7391 273.51 71.1792C273.104 71.6151 272.864 72.2456 272.792 73.0708H277.09C277.09 72.5672 277.018 72.1229 276.874 71.7378C276.73 71.3527 276.512 71.0544 276.22 70.8428C275.932 70.627 275.564 70.519 275.116 70.519ZM282.714 69.9668C283.603 69.9668 284.29 70.2651 284.777 70.8618C285.268 71.4585 285.513 72.3387 285.513 73.5024C285.513 74.2811 285.397 74.9412 285.164 75.4829C284.931 76.0203 284.599 76.4287 284.167 76.708C283.74 76.9873 283.226 77.127 282.625 77.127C282.21 77.127 281.848 77.0656 281.54 76.9429C281.235 76.8159 280.981 76.6466 280.778 76.4351C280.575 76.2192 280.418 75.9823 280.308 75.7241H280.264C280.276 75.9653 280.287 76.2171 280.295 76.4795C280.304 76.7419 280.308 76.9894 280.308 77.2222V80.0532H279.661V70.1001H280.194L280.27 71.4775H280.308C280.422 71.2152 280.583 70.9676 280.791 70.7349C280.998 70.5021 281.26 70.3159 281.578 70.1763C281.895 70.0366 282.274 69.9668 282.714 69.9668ZM282.631 70.5317C282.111 70.5317 281.677 70.646 281.33 70.8745C280.987 71.0988 280.731 71.4289 280.562 71.8647C280.397 72.2964 280.312 72.8254 280.308 73.4517V73.5596C280.308 74.2324 280.391 74.7931 280.556 75.2417C280.725 75.686 280.977 76.0182 281.311 76.2383C281.65 76.4583 282.069 76.5684 282.568 76.5684C283.059 76.5684 283.473 76.4478 283.812 76.2065C284.151 75.9653 284.409 75.6162 284.586 75.1592C284.764 74.7021 284.853 74.1478 284.853 73.4961C284.853 72.527 284.667 71.7907 284.294 71.2871C283.926 70.7835 283.372 70.5317 282.631 70.5317ZM287.024 72.855C287.024 71.9875 287.092 71.2406 287.227 70.6143C287.367 69.988 287.572 69.4717 287.843 69.0654C288.118 68.6549 288.458 68.3439 288.865 68.1323C289.318 67.8403 289.861 67.616 290.496 67.4595C291.135 67.3029 291.876 67.1759 292.718 67.0786L292.819 67.6499C292.379 67.7007 291.971 67.7578 291.594 67.8213C291.222 67.8848 290.881 67.9567 290.572 68.0371C290.263 68.1133 289.986 68.2 289.741 68.2974C289.5 68.3947 289.29 68.5047 289.112 68.6274C288.833 68.7967 288.594 69.0358 288.395 69.3447C288.196 69.6494 288.037 70.026 287.919 70.4746C287.8 70.9232 287.726 71.4479 287.697 72.0488H287.748C287.904 71.7653 288.107 71.5135 288.357 71.2935C288.611 71.0734 288.903 70.8999 289.233 70.7729C289.563 70.6418 289.925 70.5762 290.318 70.5762C290.898 70.5762 291.385 70.6989 291.778 70.9443C292.176 71.1855 292.477 71.541 292.68 72.0107C292.883 72.4762 292.984 73.0433 292.984 73.7119C292.984 74.3975 292.874 74.9984 292.654 75.5146C292.434 76.0267 292.104 76.4245 291.664 76.708C291.228 76.9873 290.682 77.127 290.026 77.127C289.493 77.127 289.036 77.019 288.655 76.8032C288.274 76.5832 287.963 76.2806 287.722 75.8955C287.485 75.5062 287.31 75.0534 287.195 74.5371C287.081 74.0166 287.024 73.4559 287.024 72.855ZM290.077 76.5684C290.585 76.5684 291.004 76.4562 291.334 76.2319C291.664 76.0034 291.91 75.6797 292.07 75.2607C292.231 74.8376 292.312 74.3361 292.312 73.7563C292.312 72.8973 292.136 72.2477 291.785 71.8076C291.433 71.3633 290.919 71.1411 290.242 71.1411C289.849 71.1411 289.491 71.2131 289.169 71.3569C288.848 71.5008 288.562 71.6997 288.312 71.9536C288.067 72.2033 287.855 72.491 287.678 72.8169C287.678 73.2866 287.714 73.7458 287.786 74.1943C287.858 74.6387 287.982 75.0407 288.16 75.4004C288.338 75.7601 288.581 76.0457 288.89 76.2573C289.203 76.4647 289.599 76.5684 290.077 76.5684ZM293.727 70.1001H294.406L296.082 74.48C296.184 74.7381 296.272 74.9772 296.349 75.1973C296.429 75.4131 296.499 75.612 296.558 75.7939C296.617 75.9717 296.666 76.1346 296.704 76.2827H296.742C296.806 76.0881 296.89 75.8384 296.996 75.5337C297.102 75.2248 297.222 74.882 297.358 74.5054L299.015 70.1001H299.7L296.552 78.2949C296.399 78.6927 296.232 79.0291 296.05 79.3042C295.868 79.5835 295.655 79.793 295.409 79.9326C295.164 80.0765 294.868 80.1484 294.521 80.1484C294.364 80.1484 294.222 80.1357 294.095 80.1104C293.968 80.0892 293.846 80.0596 293.727 80.0215V79.4692C293.837 79.5031 293.949 79.5306 294.063 79.5518C294.182 79.5771 294.311 79.5898 294.451 79.5898C294.692 79.5898 294.899 79.5391 295.073 79.4375C295.25 79.3402 295.409 79.1878 295.549 78.9805C295.688 78.7731 295.82 78.5086 295.942 78.187L296.412 76.9619L293.727 70.1001ZM303.89 69.9668C304.778 69.9668 305.466 70.2651 305.953 70.8618C306.444 71.4585 306.689 72.3387 306.689 73.5024C306.689 74.2811 306.573 74.9412 306.34 75.4829C306.107 76.0203 305.775 76.4287 305.343 76.708C304.916 76.9873 304.402 77.127 303.801 77.127C303.386 77.127 303.024 77.0656 302.715 76.9429C302.411 76.8159 302.157 76.6466 301.954 76.4351C301.75 76.2192 301.594 75.9823 301.484 75.7241H301.439C301.452 75.9653 301.463 76.2171 301.471 76.4795C301.48 76.7419 301.484 76.9894 301.484 77.2222V80.0532H300.836V70.1001H301.37L301.446 71.4775H301.484C301.598 71.2152 301.759 70.9676 301.966 70.7349C302.174 70.5021 302.436 70.3159 302.753 70.1763C303.071 70.0366 303.45 69.9668 303.89 69.9668ZM303.807 70.5317C303.287 70.5317 302.853 70.646 302.506 70.8745C302.163 71.0988 301.907 71.4289 301.738 71.8647C301.573 72.2964 301.488 72.8254 301.484 73.4517V73.5596C301.484 74.2324 301.566 74.7931 301.731 75.2417C301.901 75.686 302.153 76.0182 302.487 76.2383C302.825 76.4583 303.244 76.5684 303.744 76.5684C304.235 76.5684 304.649 76.4478 304.988 76.2065C305.326 75.9653 305.584 75.6162 305.762 75.1592C305.94 74.7021 306.029 74.1478 306.029 73.4961C306.029 72.527 305.843 71.7907 305.47 71.2871C305.102 70.7835 304.548 70.5317 303.807 70.5317ZM312.643 70.1001V70.665H309.228V77H308.581V70.1001H312.643ZM316.674 69.9668C317.262 69.9668 317.751 70.1043 318.14 70.3794C318.534 70.6545 318.826 71.0311 319.016 71.5093C319.211 71.9875 319.308 72.5355 319.308 73.1533V73.6167H314.325C314.325 74.5646 314.543 75.2925 314.979 75.8003C315.419 76.3081 316.048 76.562 316.864 76.562C317.292 76.562 317.662 76.5282 317.975 76.4604C318.292 76.3885 318.644 76.2679 319.029 76.0986V76.689C318.69 76.8413 318.352 76.9513 318.013 77.019C317.675 77.091 317.285 77.127 316.845 77.127C316.147 77.127 315.561 76.9831 315.087 76.6953C314.617 76.4033 314.262 75.9928 314.021 75.4639C313.784 74.9349 313.665 74.3171 313.665 73.6104C313.665 72.9206 313.779 72.3006 314.008 71.7505C314.241 71.2004 314.579 70.7666 315.023 70.4492C315.472 70.1276 316.022 69.9668 316.674 69.9668ZM316.667 70.519C316.007 70.519 315.472 70.7391 315.062 71.1792C314.655 71.6151 314.416 72.2456 314.344 73.0708H318.642C318.642 72.5672 318.57 72.1229 318.426 71.7378C318.282 71.3527 318.064 71.0544 317.772 70.8428C317.484 70.627 317.116 70.519 316.667 70.519Z" fill="white"/>
<path d="M91.9844 20.334C91.9635 9.09252 82.8753 0 71.6681 0H49.7984C49.6394 0 49.5117 0.1281 49.5117 0.287572V21.1078C49.5117 21.3797 49.1651 21.4895 49.0009 21.2725C43.5693 14.1355 40.0195 9.76439 30.8687 9.50819C21.3739 9.24153 13.8103 13.1238 8.46475 20.9248C1.54496 31.0238 2.56143 44.8195 11.522 53.959C13.2604 55.7315 15.2907 57.3341 17.6286 58.6962C17.798 58.7955 17.8241 59.0308 17.6781 59.1641C17.0317 59.7628 16.4271 60.3301 15.8068 60.8791C14.3785 62.147 12.9502 63.4123 11.522 64.6803C7.72977 68.0475 3.93496 71.4121 0.101061 74.7322C0.0098402 74.8107 -0.024042 74.9414 0.0176592 75.0538C2.16006 80.8863 6.34581 85.5606 11.522 88.5096C15.1187 90.5592 19.1924 91.7644 23.4016 91.9421H27.7698C38.8857 91.9421 47.8958 82.9045 47.8958 71.7546V69.1403C47.8958 64.6228 46.2538 60.4974 43.5459 57.308C41.1923 54.3852 37.8927 52.2754 34.0953 51.431C33.4594 51.2715 29.8887 50.448 27.5274 50.0664C27.2511 50.0219 27.2537 49.6245 27.5326 49.5775L35.3464 48.286C41.6745 47.2403 46.6343 42.2653 47.6769 35.9178L48.9279 28.2919C48.98 27.9703 49.4388 27.9703 49.4935 28.2919L50.7445 35.9178C51.787 42.2653 56.7469 47.2403 63.075 48.286L70.6777 49.5409C70.9983 49.5932 70.9983 50.0533 70.6777 50.1082L64.4173 51.1435C57.6122 52.2676 53.0459 57.3236 51.5473 64.011C51.5447 64.0267 51.4456 64.9966 51.4456 65.4724V73.7571C51.4456 73.7571 51.4456 73.7754 51.4456 73.7859C52.4699 87.3933 68.3789 96.1119 80.8267 90.0285C87.8273 86.6064 91.8645 80.8052 91.9192 72.9676C92.0156 58.9785 92.0104 36.6158 91.9818 20.3314L91.9844 20.334Z" fill="#0000FF"/>
<path d="M139.693 11.624V47.9715H133.126V34.7322H125.189L119.023 47.9715H112L118.795 33.1731C116.775 32.2395 115.12 30.8889 113.828 29.1237C112.608 27.3245 112 25.3337 112 23.1514C112 19.9677 113.236 17.2495 115.711 14.9993C118.186 12.7491 121.173 11.624 124.675 11.624H139.693ZM133.126 17.5963H124.675C123 17.5963 121.573 18.1346 120.392 19.2063C119.173 20.3144 118.564 21.6287 118.564 23.1514C118.564 24.6742 119.173 25.9909 120.392 27.0966C121.573 28.2047 122.998 28.7575 124.675 28.7575H133.126V17.5938V17.5963Z" fill="white"/>
<path d="M166.243 14.0116C168.488 16.0193 169.613 18.4441 169.613 21.2811C169.613 22.6656 169.288 24.0162 168.643 25.3305C168.376 25.8494 168.061 26.344 167.7 26.8096C167.339 27.2776 166.929 27.7189 166.474 28.1335C167.996 29.0331 169.215 30.1752 170.129 31.5597C171.193 33.1868 171.729 35.0393 171.729 37.1149C171.729 40.2647 170.493 42.9659 168.018 45.2137C165.506 47.4639 162.459 48.589 158.881 48.589C156.14 48.589 153.648 47.8809 151.401 46.46C149.154 45.0415 147.67 43.189 146.948 40.9049C146.376 39.0717 145.956 37.1658 145.692 35.1945C145.425 33.2207 145.311 31.1621 145.35 29.0161C145.425 24.7922 146.017 21.1404 147.12 18.061C147.842 15.949 149.234 14.2371 151.289 12.9204C153.267 11.6401 155.514 11 158.026 11C161.262 11 164.001 12.0039 166.248 14.0116H166.243ZM153.168 39.2996C153.396 39.7846 153.701 40.2259 154.082 40.6236C154.462 41.0212 154.901 41.3777 155.396 41.6881C156.46 42.3112 157.623 42.6216 158.879 42.6216C160.668 42.6216 162.171 42.0857 163.39 41.0115C164.571 39.9034 165.16 38.5892 165.16 37.0664C165.16 35.5437 164.532 34.2464 163.276 33.1722C162.02 32.1344 160.479 31.6155 158.651 31.6155H151.912C151.948 35.0078 152.368 37.5708 153.168 39.2996ZM155.223 17.6997C154.804 17.9761 154.453 18.2719 154.167 18.5823C153.88 18.8927 153.643 19.2564 153.454 19.6735C153.148 20.3306 152.862 21.1792 152.598 22.217C152.331 23.2549 152.121 24.3969 151.97 25.6433H157.795C159.243 25.6433 160.479 25.2286 161.507 24.3969C162.534 23.5652 163.048 22.5444 163.048 21.3344C163.048 20.1245 162.571 19.0842 161.621 18.2186C160.668 17.3869 159.47 16.9722 158.023 16.9722C156.995 16.9722 156.062 17.2147 155.226 17.6997H155.223Z" fill="white"/>
<path d="M172.296 47.9709L183.66 22.0088H190.683L202.045 47.9709H194.964L187.141 30.11L179.319 47.9709H172.296Z" fill="white"/>
<path d="M209.009 37.3258C209.389 38.8146 210.189 40.0439 211.406 41.0114C212.815 42.0856 214.47 42.6215 216.373 42.6215C219.265 42.6215 221.532 41.8771 223.168 40.3883L227.793 44.6462C224.899 47.2771 221.093 48.5913 216.373 48.5913C212.262 48.5913 208.779 47.2601 205.923 44.5928C203.067 41.928 201.64 38.7249 201.64 34.9858C201.64 31.2468 203.029 27.9588 205.809 25.3279C208.551 22.697 211.976 21.3828 216.087 21.3828C220.198 21.3828 223.318 22.6801 225.909 25.277C228.421 27.84 229.679 31.0747 229.679 34.9858V37.3233H209.009V37.3258ZM211.178 28.6547C209.998 29.6586 209.237 30.9049 208.895 32.3938H222.484C222.142 30.8031 221.437 29.5374 220.37 28.6038C219.265 27.6 217.801 27.098 215.973 27.098C214.145 27.098 212.509 27.6169 211.176 28.6547H211.178Z" fill="white"/>
<path d="M232.076 22.0088H238.643V31.9771H249.093V22.0088H255.66V47.9709H249.093V37.9493H238.643V47.9709H232.076V22.0088Z" fill="white"/>
<path d="M266.222 22.0088V35.8204C266.222 37.862 266.849 39.506 268.105 40.7524C269.322 41.9987 270.864 42.6219 272.73 42.6219C274.597 42.6219 276.08 41.9987 277.297 40.7524C278.514 39.506 279.125 37.862 279.125 35.8204V22.0088H285.692V47.9709H279.467V45.2188C279.353 45.357 279.239 45.488 279.125 45.6092C279.011 45.7304 278.897 45.842 278.783 45.9462C276.994 47.7115 274.633 48.5941 271.702 48.5941C268.086 48.5941 265.174 47.3817 262.966 44.9594C260.758 42.6049 259.655 39.4915 259.655 35.6142V22.0112H266.222V22.0088Z" fill="white"/>
<path d="M296.084 37.3258C296.465 38.8146 297.265 40.0439 298.481 41.0114C299.89 42.0856 301.545 42.6215 303.448 42.6215C306.34 42.6215 308.607 41.8771 310.243 40.3883L314.868 44.6462C311.974 47.2771 308.168 48.5913 303.448 48.5913C299.337 48.5913 295.854 47.2601 292.998 44.5928C290.143 41.928 288.715 38.7249 288.715 34.9858C288.715 31.2468 290.104 27.9588 292.884 25.3279C295.626 22.697 299.051 21.3828 303.162 21.3828C307.274 21.3828 310.393 22.6801 312.985 25.277C315.496 27.84 316.754 31.0747 316.754 34.9858V37.3233H296.084V37.3258ZM298.256 28.6547C297.075 29.6586 296.314 30.9049 295.973 32.3938H309.562C309.22 30.8031 308.515 29.5374 307.448 28.6038C306.343 27.6 304.879 27.098 303.051 27.098C301.223 27.098 299.587 27.6169 298.254 28.6547H298.256Z" fill="white"/>
</svg>
