<svg width="34" height="34" viewBox="0 0 34 34" fill="none" xmlns="http://www.w3.org/2000/svg">
<path d="M33.9942 7.51473C33.9865 3.36028 30.6278 0 26.486 0H18.4038C18.345 0 18.2978 0.0473415 18.2978 0.106277V7.80071C18.2978 7.90119 18.1697 7.94177 18.109 7.86158C16.1017 5.22399 14.7898 3.60858 11.408 3.5139C7.89904 3.41535 5.10381 4.85009 3.12828 7.73308C0.570965 11.4653 0.946616 16.5637 4.25812 19.9414C4.90058 20.5964 5.65091 21.1887 6.51491 21.6921C6.57752 21.7288 6.58715 21.8157 6.53321 21.865C6.29434 22.0862 6.07087 22.2959 5.84163 22.4988C5.31379 22.9674 4.78596 23.435 4.25812 23.9036C2.85665 25.148 1.45423 26.3914 0.0373488 27.6184C0.0036366 27.6474 -0.00888509 27.6957 0.00652621 27.7373C0.798282 29.8928 2.34519 31.6202 4.25812 32.7101C5.58734 33.4675 7.09283 33.9129 8.64841 33.9786H10.2627C14.3708 33.9786 17.7006 30.6386 17.7006 26.518V25.5518C17.7006 23.8823 17.0938 22.3577 16.093 21.179C15.2233 20.0989 14.0038 19.3192 12.6004 19.0071C12.3654 18.9482 11.0458 18.6438 10.1732 18.5028C10.0711 18.4864 10.072 18.3395 10.1751 18.3221L13.0628 17.8448C15.4015 17.4584 17.2344 15.6198 17.6197 13.274L18.0821 10.4557C18.1013 10.3369 18.2708 10.3369 18.2911 10.4557L18.7534 13.274C19.1387 15.6198 20.9717 17.4584 23.3103 17.8448L26.12 18.3086C26.2385 18.3279 26.2385 18.498 26.12 18.5182L23.8064 18.9008C21.2915 19.3163 19.6039 21.1848 19.0501 23.6562C19.0491 23.662 19.0125 24.0205 19.0125 24.1963V27.2581C19.0125 27.2581 19.0125 27.2648 19.0125 27.2687C19.3911 32.2975 25.2705 35.5196 29.8707 33.2714C32.4579 32.0067 33.9499 29.8628 33.9701 26.9663C34.0058 21.7964 34.0039 13.5319 33.9933 7.51377L33.9942 7.51473Z" fill="#0000FF"/>
</svg>
