<svg width="53" height="53" viewBox="0 0 53 53" fill="none" xmlns="http://www.w3.org/2000/svg">
<path d="M26.5 0C41.1355 5.15408e-07 53 11.8645 53 26.5C53 41.1355 41.1355 53 26.5 53C11.8645 53 5.1544e-07 41.1355 0 26.5C0 11.8645 11.8645 0 26.5 0ZM26.499 12.3662C22.6629 12.3662 22.1809 12.3836 20.6738 12.4521C19.1692 12.521 18.1418 12.7589 17.2432 13.1084C16.3136 13.4694 15.5248 13.9524 14.7393 14.7383C13.9531 15.5238 13.4706 16.313 13.1084 17.2422C12.7581 18.141 12.5199 19.1682 12.4521 20.6719C12.3847 22.1794 12.3662 22.6617 12.3662 26.5C12.3662 30.3382 12.3838 30.8188 12.4521 32.3262C12.5213 33.8308 12.7592 34.8582 13.1084 35.7568C13.4697 36.6864 13.9524 37.4752 14.7383 38.2607C15.5235 39.0468 16.3124 39.5306 17.2412 39.8916C18.1405 40.2411 19.1685 40.479 20.6729 40.5479C22.1801 40.6164 22.6622 40.6338 26.5 40.6338C30.3383 40.6338 30.8187 40.6165 32.3262 40.5479C33.8306 40.479 34.8587 40.241 35.7578 39.8916C36.687 39.5307 37.4746 39.0467 38.2598 38.2607C39.0459 37.4752 39.5294 36.6861 39.8916 35.7568C40.239 34.858 40.4772 33.8308 40.5479 32.3271C40.6156 30.8196 40.6338 30.3384 40.6338 26.5C40.6338 22.6621 40.6156 22.1801 40.5479 20.6729C40.4772 19.1683 40.239 18.1408 39.8916 17.2422C39.5294 16.3126 39.0459 15.5239 38.2598 14.7383C37.4737 13.9522 36.6872 13.4691 35.7568 13.1084C34.856 12.759 33.8285 12.521 32.3242 12.4521C30.8169 12.3836 30.3367 12.3662 26.499 12.3662Z" fill="#0000FF"/>
<path d="M25.2334 14.9141C25.6097 14.9135 26.0302 14.9141 26.502 14.9141C30.2752 14.9141 30.7227 14.9274 32.2129 14.9951C33.5907 15.0581 34.3387 15.288 34.8369 15.4814C35.4965 15.7376 35.9666 16.0444 36.4609 16.5391C36.9555 17.0337 37.2618 17.5046 37.5186 18.1641C37.712 18.6617 37.9422 19.4101 38.0049 20.7881C38.0726 22.2776 38.0879 22.7256 38.0879 26.4971C38.0879 30.2687 38.0726 30.7163 38.0049 32.2061C37.9419 33.5841 37.712 34.3325 37.5186 34.8301C37.2624 35.4895 36.9555 35.9589 36.4609 36.4531C35.9663 36.9478 35.4968 37.2546 34.8369 37.5107C34.3393 37.7051 33.5907 37.934 32.2129 37.9971C30.723 38.0648 30.2752 38.0801 26.502 38.0801C22.728 38.0801 22.2799 38.0648 20.79 37.9971C19.4123 37.9334 18.6645 37.7032 18.166 37.5098C17.5066 37.2536 17.0356 36.9477 16.541 36.4531C16.0465 35.9586 15.7401 35.4887 15.4834 34.8291C15.2899 34.3315 15.0588 33.5831 14.9961 32.2051C14.9284 30.7152 14.915 30.2673 14.915 26.4932C14.915 22.7193 14.9284 22.274 14.9961 20.7842C15.0591 19.4062 15.2899 18.6584 15.4834 18.1602C15.7396 17.5006 16.0463 17.0289 16.541 16.5342C17.0355 16.0397 17.5066 15.7333 18.166 15.4766C18.6642 15.2823 19.4124 15.0526 20.79 14.9893C22.0938 14.9304 22.5995 14.9131 25.2334 14.9102V14.9141ZM26.501 19.2422C22.493 19.2425 19.2433 22.492 19.2432 26.5C19.2432 30.5083 22.4936 33.7568 26.502 33.7568C30.5101 33.7566 33.7588 30.5082 33.7588 26.5C33.7587 22.4918 30.5092 19.2422 26.501 19.2422ZM34.0459 17.2598C33.1096 17.2598 32.3496 18.0194 32.3496 18.9561C32.3497 19.8923 33.1096 20.6523 34.0459 20.6523C34.9822 20.6523 35.7421 19.8923 35.7422 18.9561C35.7422 18.0197 34.9822 17.2598 34.0459 17.2598Z" fill="#0000FF"/>
<path d="M26.5012 21.7891C29.1029 21.7891 31.2124 23.8982 31.2124 26.5002C31.2124 29.102 29.1029 31.2114 26.5012 31.2114C23.8992 31.2114 21.79 29.102 21.79 26.5002C21.79 23.8982 23.8992 21.7891 26.5012 21.7891Z" fill="#0000FF"/>
</svg>
