<svg width="52" height="53" viewBox="0 0 52 53" fill="none" xmlns="http://www.w3.org/2000/svg">
<path d="M26 0C40.3594 0 52 11.8645 52 26.5C52 41.1355 40.3594 53 26 53C11.6406 53 5.05714e-07 41.1355 0 26.5C0 11.8645 11.6406 5.25352e-07 26 0ZM38.7744 18.1641C39.2111 16.3798 38.1076 15.5705 36.9639 16.0996L11.9189 25.9424C10.2096 26.6412 10.2196 27.6137 11.6074 28.0469L18.0342 30.0908L32.9141 20.5234C33.6164 20.0895 34.2605 20.3232 33.7314 20.8018L21.6758 31.8906L21.2334 38.6455C21.8833 38.6455 22.1705 38.3429 22.5332 37.9834L25.6562 34.8887L32.1533 39.7803C33.349 40.4527 34.2119 40.105 34.5098 38.6494L38.7744 18.1641Z" fill="#0000FF"/>
</svg>
