<svg width="53" height="53" viewBox="0 0 53 53" fill="none" xmlns="http://www.w3.org/2000/svg">
<path d="M26.5 0C41.1355 5.15408e-07 53 11.8645 53 26.5C53 41.1355 41.1355 53 26.5 53C11.8645 53 5.1544e-07 41.1355 0 26.5C0 11.8645 11.8645 0 26.5 0ZM25.959 19.4365C24.4426 19.4216 23.1599 19.4424 22.4326 19.791C21.949 20.0229 21.5754 20.5409 21.8027 20.5713C22.0834 20.6079 22.7193 20.7399 23.0566 21.1904C23.4921 21.7726 23.4775 23.0781 23.4775 23.0781C23.4804 23.1192 23.7227 26.6789 22.8926 27.123C22.3202 27.4297 21.5347 26.8044 19.8467 23.9424C18.987 22.4842 18.3367 20.8728 18.3301 20.8564C18.3301 20.8564 18.2047 20.5535 17.9795 20.3906C17.7071 20.1938 17.3262 20.1328 17.3262 20.1328L13.2881 20.1592C13.2793 20.1594 12.6799 20.1773 12.459 20.4346C12.2638 20.6611 12.439 21.1281 12.4434 21.1396C12.4434 21.1396 15.6049 28.4014 19.1855 32.0615C22.469 35.4162 26.1973 35.1963 26.1973 35.1963H27.8867C27.9046 35.1943 28.4006 35.1356 28.6572 34.8652C28.8945 34.6149 28.8888 34.1444 28.8887 34.1367C28.8887 34.1367 28.8571 31.9124 29.9092 31.584C30.946 31.2615 32.2776 33.7353 33.6904 34.6865C34.7492 35.3998 35.5548 35.2504 35.5674 35.248L39.3428 35.1963C39.3428 35.1963 41.3178 35.0767 40.3818 33.5527C40.3042 33.4275 39.835 32.4247 37.5752 30.3652C35.207 28.2089 35.5244 28.5575 38.375 24.8271C40.1115 22.5554 40.8059 21.1682 40.5889 20.5752C40.3827 20.0081 39.1055 20.1592 39.1055 20.1592L34.8555 20.1846C34.8505 20.1839 34.5384 20.1434 34.3066 20.2793C34.0785 20.4136 33.9307 20.7275 33.9307 20.7275C33.9227 20.7483 33.2532 22.4939 32.3613 23.9805C30.4693 27.1332 29.7132 27.3006 29.4033 27.1055C28.683 26.6481 28.8623 25.2704 28.8623 24.292C28.8623 21.2351 29.335 19.9608 27.9434 19.6309C27.4816 19.5209 27.141 19.4487 25.959 19.4365Z" fill="#0000FF"/>
</svg>
